<svg xmlns="http://www.w3.org/2000/svg" width="1200" height="630" viewBox="0 0 1200 630" role="img">
<text x="60" y="48" font-family="ui-sans-serif, system-ui, -apple-system, Segoe UI, Roboto, Arial" font-size="22" fill="#111" text-anchor="start">Experiment 1: Performance vs Fill Percentage</text>
<text x="60" y="74" font-family="ui-sans-serif, system-ui, -apple-system, Segoe UI, Roboto, Arial" font-size="14" fill="#555" text-anchor="start">Naive long-context shows a sharp cliff at ~50% fill; structured remains stable.</text>
<rect x="90" y="90" width="1020" height="430" fill="white" stroke="#ddd" stroke-width="1" rx="8" />
<line x1="90.0" y1="520.0" x2="1110.0" y2="520.0" stroke="#eee" stroke-width="1" />
<text x="80" y="525.0" font-family="ui-sans-serif, system-ui, -apple-system, Segoe UI, Roboto, Arial" font-size="12" fill="#444" text-anchor="end">0.00</text>
<line x1="90.0" y1="437.3076923076923" x2="1110.0" y2="437.3076923076923" stroke="#eee" stroke-width="1" />
<text x="80" y="442.3076923076923" font-family="ui-sans-serif, system-ui, -apple-system, Segoe UI, Roboto, Arial" font-size="12" fill="#444" text-anchor="end">0.05</text>
<line x1="90.0" y1="354.61538461538464" x2="1110.0" y2="354.61538461538464" stroke="#eee" stroke-width="1" />
<text x="80" y="359.61538461538464" font-family="ui-sans-serif, system-ui, -apple-system, Segoe UI, Roboto, Arial" font-size="12" fill="#444" text-anchor="end">0.10</text>
<line x1="90.0" y1="271.9230769230769" x2="1110.0" y2="271.9230769230769" stroke="#eee" stroke-width="1" />
<text x="80" y="276.9230769230769" font-family="ui-sans-serif, system-ui, -apple-system, Segoe UI, Roboto, Arial" font-size="12" fill="#444" text-anchor="end">0.15</text>
<line x1="90.0" y1="189.23076923076923" x2="1110.0" y2="189.23076923076923" stroke="#eee" stroke-width="1" />
<text x="80" y="194.23076923076923" font-family="ui-sans-serif, system-ui, -apple-system, Segoe UI, Roboto, Arial" font-size="12" fill="#444" text-anchor="end">0.20</text>
<line x1="90.0" y1="106.53846153846158" x2="1110.0" y2="106.53846153846158" stroke="#eee" stroke-width="1" />
<text x="80" y="111.53846153846158" font-family="ui-sans-serif, system-ui, -apple-system, Segoe UI, Roboto, Arial" font-size="12" fill="#444" text-anchor="end">0.25</text>
<line x1="90.0" y1="520.0" x2="90.0" y2="90.0" stroke="#f2f2f2" stroke-width="1" />
<text x="90.0" y="542" font-family="ui-sans-serif, system-ui, -apple-system, Segoe UI, Roboto, Arial" font-size="12" fill="#444" text-anchor="middle">10%</text>
<line x1="345.0" y1="520.0" x2="345.0" y2="90.0" stroke="#f2f2f2" stroke-width="1" />
<text x="345.0" y="542" font-family="ui-sans-serif, system-ui, -apple-system, Segoe UI, Roboto, Arial" font-size="12" fill="#444" text-anchor="middle">30%</text>
<line x1="600.0" y1="520.0" x2="600.0" y2="90.0" stroke="#f2f2f2" stroke-width="1" />
<text x="600.0" y="542" font-family="ui-sans-serif, system-ui, -apple-system, Segoe UI, Roboto, Arial" font-size="12" fill="#444" text-anchor="middle">50%</text>
<line x1="855.0" y1="520.0" x2="855.0" y2="90.0" stroke="#f2f2f2" stroke-width="1" />
<text x="855.0" y="542" font-family="ui-sans-serif, system-ui, -apple-system, Segoe UI, Roboto, Arial" font-size="12" fill="#444" text-anchor="middle">70%</text>
<line x1="1110.0" y1="520.0" x2="1110.0" y2="90.0" stroke="#f2f2f2" stroke-width="1" />
<text x="1110.0" y="542" font-family="ui-sans-serif, system-ui, -apple-system, Segoe UI, Roboto, Arial" font-size="12" fill="#444" text-anchor="middle">90%</text>
<polyline points="90.0,156.15384615384616 345.0,139.61538461538464 600.0,142.92307692307693 855.0,144.57692307692307 1110.0,141.26923076923077" fill="none" stroke="#2ca02c" stroke-width="4" stroke-linejoin="round" stroke-linecap="round" />
<polyline points="90.0,288.46153846153845 345.0,209.0769230769231 600.0,488.5769230769231 855.0,420.7692307692308 1110.0,207.42307692307693" fill="none" stroke="#d62728" stroke-width="4" stroke-linejoin="round" stroke-linecap="round" />
<circle cx="90.0" cy="288.46153846153845" r="5" fill="#d62728" />
<circle cx="345.0" cy="209.0769230769231" r="5" fill="#d62728" />
<circle cx="600.0" cy="488.5769230769231" r="5" fill="#d62728" />
<circle cx="855.0" cy="420.7692307692308" r="5" fill="#d62728" />
<circle cx="1110.0" cy="207.42307692307693" r="5" fill="#d62728" />
<circle cx="90.0" cy="156.15384615384616" r="5" fill="#2ca02c" />
<circle cx="345.0" cy="139.61538461538464" r="5" fill="#2ca02c" />
<circle cx="600.0" cy="142.92307692307693" r="5" fill="#2ca02c" />
<circle cx="855.0" cy="144.57692307692307" r="5" fill="#2ca02c" />
<circle cx="1110.0" cy="141.26923076923077" r="5" fill="#2ca02c" />
<rect x="90" y="548" width="18" height="10" fill="#2ca02c" stroke="#2ca02c" stroke-width="1" />
<text x="114" y="557" font-family="ui-sans-serif, system-ui, -apple-system, Segoe UI, Roboto, Arial" font-size="12" fill="#333" text-anchor="start">Structured</text>
<rect x="222" y="548" width="18" height="10" fill="#d62728" stroke="#d62728" stroke-width="1" />
<text x="246" y="557" font-family="ui-sans-serif, system-ui, -apple-system, Segoe UI, Roboto, Arial" font-size="12" fill="#333" text-anchor="start">Naive</text>
<text x="1140" y="560" font-family="ui-sans-serif, system-ui, -apple-system, Segoe UI, Roboto, Arial" font-size="12" fill="#666" text-anchor="end">F1 score</text>
<text x="600" y="615" font-family="ui-sans-serif, system-ui, -apple-system, Segoe UI, Roboto, Arial" font-size="12" fill="#666" text-anchor="middle">Fill percentage of available context window</text>
</svg>
